<?xml version="1.0" encoding="UTF-8" standalone="no"?>
<!-- Created with Inkscape (http://www.inkscape.org/) -->

<svg
   xmlns:dc="http://purl.org/dc/elements/1.1/"
   xmlns:cc="http://creativecommons.org/ns#"
   xmlns:rdf="http://www.w3.org/1999/02/22-rdf-syntax-ns#"
   xmlns:svg="http://www.w3.org/2000/svg"
   xmlns="http://www.w3.org/2000/svg"
   xmlns:sodipodi="http://sodipodi.sourceforge.net/DTD/sodipodi-0.dtd"
   xmlns:inkscape="http://www.inkscape.org/namespaces/inkscape"
   width="108"
   height="108"
   viewBox="0 0 108 108"
   id="svg2"
   version="1.1"
   inkscape:version="0.91 r13725"
   sodipodi:docname="icon.svg">
  <defs
     id="defs4" />
  <sodipodi:namedview
     id="base"
     pagecolor="#ffffff"
     bordercolor="#666666"
     borderopacity="1.0"
     inkscape:pageopacity="0.0"
     inkscape:pageshadow="2"
     inkscape:zoom="3.959798"
     inkscape:cx="119.8774"
     inkscape:cy="64.402161"
     inkscape:document-units="px"
     inkscape:current-layer="layer1"
     showgrid="false"
     units="px"
     inkscape:window-width="2560"
     inkscape:window-height="1017"
     inkscape:window-x="-8"
     inkscape:window-y="-8"
     inkscape:window-maximized="1" />
  <metadata
     id="metadata7">
    <rdf:RDF>
      <cc:Work
         rdf:about="">
        <dc:format>image/svg+xml</dc:format>
        <dc:type
           rdf:resource="http://purl.org/dc/dcmitype/StillImage" />
        <dc:title />
      </cc:Work>
    </rdf:RDF>
  </metadata>
  <g
     inkscape:label="Layer 1"
     inkscape:groupmode="layer"
     id="layer1"
     transform="translate(0,-944.36216)">
    <g
       id="g4151"
       transform="translate(4.5224912,9.413415)">
      <path
         inkscape:connector-curvature="0"
         id="rect4136"
         d="m 38.423804,967.10739 0,4.48157 12.420279,0 0,-4.48157 -12.420279,0 z m -8.838412,5.64869 0,38.03402 30.097102,0 0,-38.03402 -30.097102,0 z"
         style="fill:none;fill-opacity:1;stroke:#ff7f2a;stroke-width:2.49896049;stroke-miterlimit:4;stroke-dasharray:none;stroke-dashoffset:0;stroke-opacity:1" />
      <rect
         y="975.56866"
         x="32.213661"
         height="5.001955"
         width="23.767155"
         id="rect4138"
         style="fill:#ff6600;fill-opacity:1;stroke:none;stroke-width:2;stroke-miterlimit:4;stroke-dasharray:none;stroke-dashoffset:0;stroke-opacity:1" />
      <rect
         y="982.52979"
         x="32.213661"
         height="5.001955"
         width="22.931124"
         id="rect4138-8"
         style="fill:#ff6600;fill-opacity:1;stroke:none;stroke-width:2;stroke-miterlimit:4;stroke-dasharray:none;stroke-dashoffset:0;stroke-opacity:1" />
      <rect
         y="989.22882"
         x="32.213661"
         height="5.001955"
         width="24.842052"
         id="rect4138-8-1"
         style="fill:#ff6600;fill-opacity:1;stroke:none;stroke-width:2;stroke-miterlimit:4;stroke-dasharray:none;stroke-dashoffset:0;stroke-opacity:1" />
      <rect
         y="995.86816"
         x="32.213661"
         height="5.001955"
         width="20.542465"
         id="rect4138-8-1-8"
         style="fill:#ff6600;fill-opacity:1;stroke:none;stroke-width:2;stroke-miterlimit:4;stroke-dasharray:none;stroke-dashoffset:0;stroke-opacity:1" />
      <rect
         y="1002.871"
         x="32.213661"
         height="5.001955"
         width="24.842052"
         id="rect4138-8-1-8-6"
         style="fill:#ff6600;fill-opacity:1;stroke:none;stroke-width:2;stroke-miterlimit:4;stroke-dasharray:none;stroke-dashoffset:0;stroke-opacity:1" />
      <g
         transform="matrix(0.74602655,0,0,0.74602655,7.1965695,245.30227)"
         id="text4224"
         style="font-style:normal;font-weight:normal;font-size:40px;line-height:0%;font-family:sans-serif;letter-spacing:0px;word-spacing:0px;fill:#000000;fill-opacity:1;stroke:none;stroke-width:1px;stroke-linecap:butt;stroke-linejoin:miter;stroke-opacity:1">
        <path
           inkscape:connector-curvature="0"
           id="path4229"
           style="font-weight:bold;font-size:13.75px;line-height:0%;writing-mode:tb-rl"
           d="m 76.010483,979.59253 6.975708,0 0,1.95373 -4.390869,0 0,1.86646 4.129028,0 0,1.95374 -4.129028,0 0,2.29614 4.538574,0 0,1.95373 -7.123413,0 0,-10.0238 z" />
        <path
           inkscape:connector-curvature="0"
           id="path4231"
           style="font-weight:bold;font-size:13.75px;line-height:0%;writing-mode:tb-rl"
           d="m 73.862045,995.59839 3.289795,0 2.282715,5.36441 2.296143,-5.36441 3.283081,0 0,10.02381 -2.443848,0 0,-7.33155 -2.30957,5.40465 -1.638184,0 -2.30957,-5.40465 0,7.33155 -2.450562,0 0,-10.02381 z" />
        <path
           inkscape:connector-curvature="0"
           id="path4233"
           style="font-weight:bold;font-size:13.75px;line-height:0%;writing-mode:tb-rl"
           d="m 81.072739,1016.2234 q 1.013794,0.2618 1.537475,0.9131 0.530396,0.6445 0.530396,1.6449 0,1.4905 -1.141358,2.2693 -1.141357,0.7721 -3.330078,0.7721 -0.772095,0 -1.550903,-0.1276 -0.772095,-0.1209 -1.530762,-0.3693 l 0,-1.994 q 0.725098,0.3626 1.436768,0.5505 0.718384,0.1813 1.409912,0.1813 1.027222,0 1.571045,-0.3558 0.550537,-0.3558 0.550537,-1.0205 0,-0.6848 -0.563965,-1.034 -0.557251,-0.3558 -1.651611,-0.3558 l -1.033936,0 0,-1.665 1.087647,0 q 0.97351,0 1.450195,-0.3022 0.476685,-0.3088 0.476685,-0.9332 0,-0.5774 -0.463257,-0.8929 -0.463257,-0.3156 -1.309204,-0.3156 -0.62439,0 -1.262207,0.141 -0.637818,0.141 -1.268921,0.4163 l 0,-1.8933 q 0.765381,-0.2149 1.517334,-0.3223 0.751953,-0.1074 1.47705,-0.1074 1.953736,0 2.920533,0.6445 0.97351,0.6378 0.97351,1.9269 0,0.8795 -0.463256,1.4435 -0.463257,0.5572 -1.369629,0.7855 z" />
      </g>
    </g>
  </g>
</svg>
